<svg xmlns="http://www.w3.org/2000/svg" viewBox="0 0 379 389"><defs><style>.cls-1{fill:#999;}.cls-2{fill:#fff;stroke:#000;stroke-miterlimit:10;}</style></defs><g id="Capa_1" data-name="Capa 1"><circle class="cls-1" cx="187" cy="99" r="98.5"/><path class="cls-1" d="M250,87a98,98,0,1,1-98,98,98.11,98.11,0,0,1,98-98m0-1a99,99,0,1,0,99,99,99,99,0,0,0-99-99Z" transform="translate(-63 -86)"/><path class="cls-1" d="M250,474.5c-42.28,0-89.23-10.46-128.82-28.7C86.68,429.9,63.5,410.29,63.5,397c0-32.12,45.55-57.36,72.7-69.55,38-17,84.78-28.95,113.8-28.95,28.84,0,77.75,12.18,116.3,29,28.09,12.22,75.2,37.5,75.2,69.54,0,13.18-24.18,32.79-60.17,48.79C340.32,464,292.45,474.5,250,474.5Z" transform="translate(-63 -86)"/><path class="cls-1" d="M250,299c28.78,0,77.61,12.16,116.1,28.91,28,12.18,74.9,37.34,74.9,69.09,0,13-24.06,32.41-59.88,48.34C340.17,463.55,292.38,474,250,474c-42.21,0-89.09-10.44-128.61-28.66C87.06,429.53,64,410.1,64,397c0-12.51,7.13-25.23,21.2-37.79,12.24-10.94,30-21.76,51.21-31.3C174.33,310.89,221,299,250,299m0-1c-54.68,0-187,44.32-187,99,0,27.34,92.25,78,187,78s192-50.66,192-78c0-54.68-137.32-99-192-99Z" transform="translate(-63 -86)"/></g><g id="Capa_2" data-name="Capa 2"><path class="cls-2" d="M205.71,273.55" transform="translate(-63 -86)"/></g></svg>