<svg xmlns="http://www.w3.org/2000/svg" viewBox="0 0 973.79 297.8"><defs><style>.cls-1{fill:#00baff;}.cls-2{fill:none;}.cls-3{fill:#fff;}.cls-4{stroke:#000;stroke-miterlimit:10;}</style></defs><g id="Capa_1" data-name="Capa 1"><g id="Caja"><polygon class="cls-1" points="297.8 297.6 297.71 297.6 0.69 297.6 0.6 297.6 0.2 297.6 0.2 0 297.8 0 297.8 0.4 297.8 297.6"/><line class="cls-2" x1="297.4" y1="0.4" x2="297.6" y2="0.2"/><polyline class="cls-1" points="0 297.8 0.2 297.6 0.42 297.38"/><line class="cls-2" x1="297.4" y1="297.6" x2="297.18" y2="297.38"/></g><g id="Deep_symbol" data-name="Deep symbol"><polyline class="cls-3" points="148.8 88.88 204.09 33.58 215.96 45.44 148.8 112.6 148.6 112.6 81.44 45.44 93.3 33.58 148.8 88.88"/><polyline class="cls-3" points="148.8 168.1 204.09 112.81 215.96 124.67 148.8 191.83 148.6 191.83 81.44 124.67 93.3 112.81 148.8 168.1"/></g><g id="Contorno_abajo" data-name="Contorno abajo"><path class="cls-3" d="M334.49,693.73l.13-.21a172.15,172.15,0,0,1,296.76,0l.13.21" transform="translate(-334.2 -396.14)"/></g><g id="Words"><rect class="cls-4" x="45.04" y="258.92" width="103.76" height="12.61"/><rect class="cls-4" x="158.85" y="258.92" width="22.12" height="12.61"/><rect class="cls-4" x="193.44" y="258.92" width="54.29" height="12.61"/></g></g><g id="Text"><path d="M783.91,519.73l-2.77,12.82H755.85l-14,65.14H716.87L741.81,482c-13.34.52-22.52,8.14-22.52,35.86,0,8.84,2.25,10.22,2.43,11.78-12,0-18.54-4.33-18.54-16.8,0-23,16.29-45,59.08-45,6.93,0,17.84,2.08,28.76,2.08a51.35,51.35,0,0,0,15.59-2.08c-2.43,7.28-3,17.85-16.46,20.79-8,0-16.28-1.56-24.25-3.29l-7.28,34.48Z" transform="translate(-334.2 -396.14)"/><path d="M817,584.17c13.68,0,22-7.62,30.66-17.49h5.89c-9.87,15.94-24.6,32.05-47.64,32.05-16.29,0-27-8-27-27.55,0-19.92,11.26-61.68,46.78-61.68,15.42,0,19.06,8,19.06,16.64,0,19.92-19.06,35.34-39.85,36.55-.17,2.43-.35,4.85-.35,6.93C804.53,581.4,808.69,584.17,817,584.17Zm10-65.48c-8.83,0-17.32,18.53-20.79,35.69,13.34-.87,25.13-14.21,25.13-28.59C831.39,521.46,830.35,518.69,827.05,518.69Z" transform="translate(-334.2 -396.14)"/><path d="M883.53,584.17c13.69,0,22-7.62,30.67-17.49h5.89c-9.88,15.94-24.6,32.05-47.65,32.05-16.28,0-27-8-27-27.55,0-19.92,11.26-61.68,46.77-61.68,15.42,0,19.06,8,19.06,16.64,0,19.92-19.06,35.34-39.85,36.55-.17,2.43-.34,4.85-.34,6.93C871.06,581.4,875.22,584.17,883.53,584.17Zm10.05-65.48c-8.84,0-17.33,18.53-20.79,35.69,13.34-.87,25.12-14.21,25.12-28.59C897.91,521.46,896.87,518.69,893.58,518.69Z" transform="translate(-334.2 -396.14)"/><path d="M958.37,476.41,938.45,570a24,24,0,0,0-.69,5.54c0,4.85,2.25,6.41,7.1,6.41,6.76,0,13-6.58,15.59-15.24h7.28c-9.88,28.24-27,32.05-36.38,32.05-10.4,0-18.54-6.24-18.54-20.79a56.51,56.51,0,0,1,1.39-11.26l18.53-86.8Z" transform="translate(-334.2 -396.14)"/><path d="M997.18,511.06,984.71,570a24,24,0,0,0-.7,5.54c0,4.85,2.26,6.41,7.11,6.41,6.76,0,13-6.58,15.59-15.24H1014c-9.88,28.24-27,32.05-36.39,32.05-10.39,0-18.53-6.24-18.53-20.79a57.18,57.18,0,0,1,1.38-11.26l11.78-55.62Zm-7.79-36.9A13.9,13.9,0,0,1,1003.25,488a13.76,13.76,0,0,1-13.86,13.69A13.61,13.61,0,0,1,975.7,488,13.75,13.75,0,0,1,989.39,474.16Z" transform="translate(-334.2 -396.14)"/><path d="M1050.37,526.14c-6.24,0-10.91,7.27-13.51,15.94l-11.78,55.61h-24.95l18.36-86.63h25l-1.91,9c7.28-8.31,14.9-9.7,20.27-9.7,11.09,0,19.23,5.72,19.23,19.58,0,14-8.31,35-8.31,44.7,0,4.33,1.73,7.27,6.93,7.27,7.62,0,10.74-6.24,14.55-15.24h7.28c-9.7,28.41-23,32.05-32.23,32.05-15.07,0-20.44-9.7-20.44-19.58,0-11.78,7.8-33.09,7.8-44.18C1056.61,529.25,1054.53,526.14,1050.37,526.14Z" transform="translate(-334.2 -396.14)"/><path d="M1177.36,511.06l-17.15,80.39c10.57-3.81,17-9.7,21.83-24.77h7.27c-6.75,22.86-19.92,29.45-30.66,32.39l-2.6,12.48c-5.2,24.77-19.75,29.45-31.18,29.45-10.57,0-19.41-5.54-19.41-16.81,0-14.55,15.25-21.82,28.24-25.81l2.08-9.18c-5,5.37-11.78,9.53-20.79,9.53-11.78,0-23-7.28-23-27.9,0-23.38,14.38-60.63,44.52-60.63,9.88,0,14,3.81,14,8.83v1l1.9-9Zm-56.48,116.43c3.64,0,7.8-5.2,10-15.42l1-5c-8.84,3.29-17,7.8-17,14.73A5.91,5.91,0,0,0,1120.88,627.49Zm-3.29-59.08c0,13.34,5.54,13.51,8.66,13.51,4.68,0,11.44-4.68,13.86-13.51l8.84-41.06a6.83,6.83,0,0,0-7.11-6.41C1127.12,520.94,1117.59,552.12,1117.59,568.41Z" transform="translate(-334.2 -396.14)"/><path d="M1226.21,476.41,1206.29,570a24,24,0,0,0-.69,5.54c0,4.85,2.25,6.41,7.1,6.41,6.76,0,13-6.58,15.59-15.24h7.28c-9.88,28.24-27,32.05-36.38,32.05-10.4,0-18.54-6.24-18.54-20.79a56.51,56.51,0,0,1,1.39-11.26l18.53-86.8Z" transform="translate(-334.2 -396.14)"/><path d="M1265,511.06,1252.55,570a18.25,18.25,0,0,0-.52,4.33c0,4,1.21,7.62,5.2,7.62,6.75,0,11.26-6.58,13.86-15.24l11.78-55.62H1308l-21.14,100.49c-5.2,24.77-20.1,29.45-31.53,29.45-10.57,0-20.44-7.45-20.44-18.71,0-16.11,13.51-21.14,30-26l1.73-7.62c-7.45,8.49-15.24,10.05-21.13,10.05-10.4,0-18.54-6.24-18.54-20.79a57.18,57.18,0,0,1,1.38-11.26l11.79-55.62Zm-13.68,114.52c3.46,0,8-3.29,10.22-13.51l2.08-10.22c-10.92,3.63-19.23,8.66-19.23,18C1244.41,622.29,1247.52,625.58,1251.34,625.58Z" transform="translate(-334.2 -396.14)"/></g></svg>